<svg width="25" height="25" viewBox="0 0 25 25" fill="none" xmlns="http://www.w3.org/2000/svg">
<path fill-rule="evenodd" clip-rule="evenodd" d="M6.75 4.875C5.71447 4.875 4.875 5.71447 4.875 6.75C4.875 7.78553 5.71447 8.625 6.75 8.625C7.78553 8.625 8.625 7.78553 8.625 6.75C8.625 5.71447 7.78553 4.875 6.75 4.875ZM7.75 10.4947C9.40543 10.0538 10.625 8.54432 10.625 6.75C10.625 4.6099 8.8901 2.875 6.75 2.875C4.6099 2.875 2.875 4.6099 2.875 6.75C2.875 8.54432 4.09457 10.0538 5.75 10.4947V21.125C5.75 21.6773 6.19772 22.125 6.75 22.125C7.30228 22.125 7.75 21.6773 7.75 21.125V10.4947ZM18.25 16.375C17.2145 16.375 16.375 17.2145 16.375 18.25C16.375 19.2855 17.2145 20.125 18.25 20.125C19.2855 20.125 20.125 19.2855 20.125 18.25C20.125 17.2145 19.2855 16.375 18.25 16.375ZM17.25 14.5053C15.5946 14.9462 14.375 16.4557 14.375 18.25C14.375 20.3901 16.1099 22.125 18.25 22.125C20.3901 22.125 22.125 20.3901 22.125 18.25C22.125 16.4557 20.9054 14.9462 19.25 14.5053V8.66667C19.25 7.89312 18.9427 7.15125 18.3957 6.60427C17.8487 6.05729 17.1069 5.75 16.3333 5.75H13.4583C12.906 5.75 12.4583 6.19772 12.4583 6.75C12.4583 7.30228 12.906 7.75 13.4583 7.75H16.3333C16.5764 7.75 16.8096 7.84658 16.9815 8.01849C17.1534 8.19039 17.25 8.42355 17.25 8.66667V14.5053Z" fill="#0081F9"/>
</svg>
