<svg width="20" height="20" viewBox="0 0 20 20" fill="none" xmlns="http://www.w3.org/2000/svg">
<path fill-rule="evenodd" clip-rule="evenodd" d="M3.875 2C2.83947 2 2 2.83947 2 3.875C2 4.91053 2.83947 5.75 3.875 5.75C4.91053 5.75 5.75 4.91053 5.75 3.875C5.75 2.83947 4.91053 2 3.875 2ZM4.875 7.61974C6.53043 7.1788 7.75 5.66932 7.75 3.875C7.75 1.7349 6.0151 0 3.875 0C1.7349 0 0 1.7349 0 3.875C0 5.66932 1.21957 7.1788 2.875 7.61974V18.25C2.875 18.8023 3.32272 19.25 3.875 19.25C4.42728 19.25 4.875 18.8023 4.875 18.25V7.61974ZM15.375 13.5C14.3395 13.5 13.5 14.3395 13.5 15.375C13.5 16.4105 14.3395 17.25 15.375 17.25C16.4105 17.25 17.25 16.4105 17.25 15.375C17.25 14.3395 16.4105 13.5 15.375 13.5ZM14.375 11.6303C12.7196 12.0712 11.5 13.5807 11.5 15.375C11.5 17.5151 13.2349 19.25 15.375 19.25C17.5151 19.25 19.25 17.5151 19.25 15.375C19.25 13.5807 18.0304 12.0712 16.375 11.6303V5.79167C16.375 5.01812 16.0677 4.27625 15.5207 3.72927C14.9737 3.18229 14.2319 2.875 13.4583 2.875H10.5833C10.031 2.875 9.58333 3.32272 9.58333 3.875C9.58333 4.42728 10.031 4.875 10.5833 4.875H13.4583C13.7014 4.875 13.9346 4.97158 14.1065 5.14349C14.2784 5.31539 14.375 5.54855 14.375 5.79167V11.6303Z" fill="url(#paint0_linear_5_14)"/>
<defs>
<linearGradient id="paint0_linear_5_14" x1="9.625" y1="0" x2="9.625" y2="19.25" gradientUnits="userSpaceOnUse">
<stop stop-color="#3100F6"/>
<stop offset="0.9999" stop-color="#FF0402"/>
<stop offset="1" stop-opacity="0"/>
</linearGradient>
</defs>
</svg>
